<svg width="51" height="50" viewBox="0 0 51 50" fill="none" xmlns="http://www.w3.org/2000/svg">
<path d="M25.1809 12.1806C18.0866 12.1806 12.3644 17.9042 12.3644 25C12.3644 32.0958 18.0866 37.8194 25.1809 37.8194C32.2751 37.8194 37.9974 32.0958 37.9974 25C37.9974 17.9042 32.2751 12.1806 25.1809 12.1806ZM25.1809 33.3343C20.5964 33.3343 16.8485 29.5967 16.8485 25C16.8485 20.4033 20.5852 16.6657 25.1809 16.6657C29.7765 16.6657 33.5133 20.4033 33.5133 25C33.5133 29.5967 29.7654 33.3343 25.1809 33.3343ZM41.511 11.6563C41.511 13.3186 40.1725 14.6463 38.5216 14.6463C36.8596 14.6463 35.5322 13.3075 35.5322 11.6563C35.5322 10.005 36.8708 8.66618 38.5216 8.66618C40.1725 8.66618 41.511 10.005 41.511 11.6563ZM49.9996 14.691C49.81 10.6856 48.8953 7.13768 45.9617 4.21455C43.0392 1.29142 39.4921 0.376548 35.4876 0.175722C31.3605 -0.0585741 18.9901 -0.0585741 14.863 0.175722C10.8697 0.365391 7.32253 1.28026 4.3889 4.20339C1.45527 7.12652 0.551757 10.6744 0.350976 14.6798C0.116732 18.8079 0.116732 31.181 0.350976 35.309C0.540603 39.3144 1.45527 42.8623 4.3889 45.7855C7.32253 48.7086 10.8585 49.6235 14.863 49.8243C18.9901 50.0586 31.3605 50.0586 35.4876 49.8243C39.4921 49.6346 43.0392 48.7197 45.9617 45.7855C48.8842 42.8623 49.7988 39.3144 49.9996 35.309C50.2339 31.181 50.2339 18.819 49.9996 14.691ZM44.6678 39.7384C43.7977 41.9251 42.1134 43.6098 39.916 44.4912C36.6254 45.7966 28.8172 45.4954 25.1809 45.4954C21.5445 45.4954 13.7252 45.7855 10.4458 44.4912C8.25951 43.621 6.57518 41.9363 5.69398 39.7384C4.3889 36.4471 4.69007 28.6372 4.69007 25C4.69007 21.3628 4.40006 13.5418 5.69398 10.2616C6.56403 8.07486 8.24835 6.39016 10.4458 5.50876C13.7364 4.20339 21.5445 4.50463 25.1809 4.50463C28.8172 4.50463 36.6365 4.21455 39.916 5.50876C42.1022 6.379 43.7866 8.06371 44.6678 10.2616C45.9728 13.5529 45.6717 21.3628 45.6717 25C45.6717 28.6372 45.9728 36.4582 44.6678 39.7384Z" fill="#DE5890"/>
</svg>
