<svg width="952" height="333" viewBox="0 0 952 333" fill="none" xmlns="http://www.w3.org/2000/svg">
<path d="M0 132.937L192 0V90.8182L79.4267 164.526L192 241.524V333L0 196.773V132.937Z" fill="white"/>
<path d="M337.417 248.075C331.479 251.383 324.578 253.761 316.715 255.208C308.851 256.656 301.549 257.38 294.809 257.38C272.984 257.38 255.893 250.039 243.536 235.358C231.179 220.676 225 198.137 225 167.741C225 136.724 231.499 113.564 244.498 98.2627C257.497 82.7542 275.792 75 299.383 75C310.617 75 322.332 76.9644 334.528 80.8932C334.528 85.0288 334.207 91.2322 333.565 99.5034C332.923 107.568 332.281 113.254 331.639 116.563H316.474C305.401 116.563 296.655 116.873 290.235 117.493C283.977 117.907 280.205 118.837 278.922 120.285C276.514 123.18 274.669 129.073 273.385 137.964C272.101 146.649 271.459 155.024 271.459 163.088C271.459 177.149 272.823 188.005 275.551 195.656C278.28 203.1 281.73 208.063 285.902 210.544C289.914 213.025 296.574 214.266 305.882 214.266C313.264 214.266 322.893 213.439 334.769 211.785L337.417 248.075Z" fill="white"/>
<path d="M420.152 258C396.24 258 378.266 250.763 366.23 236.288C354.354 221.607 348.417 198.137 348.417 165.88C348.417 134.242 354.996 111.186 368.156 96.7119C381.315 82.2373 398.727 75 420.392 75C465.969 75 488.757 104.259 488.757 162.778C488.757 192.347 483.14 215.61 471.907 232.566C460.833 249.522 443.582 258 420.152 258ZM419.189 221.4C423.682 221.4 427.453 220.469 430.503 218.608C433.552 216.541 435.959 213.025 437.724 208.063C441.094 199.585 442.779 185.731 442.779 166.5C442.779 147.683 441.094 134.036 437.724 125.558C434.354 116.873 428.176 112.324 419.189 111.91C415.819 111.91 412.288 112.427 408.597 113.461C405.066 114.288 402.82 115.529 401.857 117.183C399.931 120.078 398.406 126.281 397.283 135.793C396.32 145.098 395.839 155.334 395.839 166.5C395.839 183.869 397.123 196.586 399.69 204.651C401.456 210.647 403.943 214.99 407.153 217.678C410.362 220.159 414.374 221.4 419.189 221.4Z" fill="white"/>
<path d="M556.057 77.1712C574.834 77.1712 590.16 79.4458 602.035 83.9949C614.071 88.5441 623.379 97.1254 629.959 109.739C636.699 122.353 640.069 140.446 640.069 164.019C640.069 189.246 636.539 208.476 629.477 221.71C622.416 234.737 612.948 243.422 601.072 247.764C589.197 251.9 574.192 253.968 556.057 253.968H507.913V77.1712H556.057ZM588.314 211.785C590.24 209.303 591.604 202.893 592.406 192.554C593.209 182.215 593.61 172.703 593.61 164.019C593.61 153.059 592.968 144.375 591.684 137.964C590.561 131.347 588.475 126.075 585.425 122.146C580.611 115.322 572.346 111.91 560.631 111.91C558.545 111.91 555.416 112.117 551.243 112.531V215.507C553.971 215.92 558.224 216.127 564.001 216.127C569.939 216.127 575.155 215.817 579.648 215.197C584.302 214.369 587.191 213.232 588.314 211.785Z" fill="white"/>
<path d="M658.101 77.1712H758V114.392H701.431V146.649H749.093V180.147H701.431V216.127H757.759V253.968H658.101V77.1712Z" fill="white"/>
<path d="M801 148H868.798V184H801V148Z" fill="white"/>
<path d="M884.202 148H952V184H884.202V148Z" fill="white"/>
</svg>
