<svg id="Capa_1" data-name="Capa 1" xmlns="http://www.w3.org/2000/svg" viewBox="0 0 500 500"><defs><style>.cls-1{fill:#009245;}.cls-2{fill:#fff;}</style></defs><path class="cls-1" d="M94,463.39,65.69,436.45q26.06-45.76,52-91.32c10.73-18.86,21.49-37.69,32.07-56.63,8.86-15.84,4.44-24-13.49-24.06-40.53-.23-81.07-.07-121.6-.08H0v-37H228Z"/><path class="cls-1" d="M156.25,500.5l-33.16-16.69L249.33,266.49c43.44,72.67,86.11,144,129.21,216.11l-34,17.9-70.29-119c-3.75-6.35-7.43-12.74-11.37-19-8.13-12.85-17.77-13.08-25.57,0-23.49,39.51-46.58,79.25-69.83,118.9C164,487.39,160.47,493.34,156.25,500.5Z"/><path class="cls-1" d="M269.38,226.52H500v36.17H441.64c-25,0-50-.22-75,.07-20,.23-25.81,10.48-16.05,27.47q39.19,68.34,78.37,136.67c1.69,3,3.21,6,3.53,6.59L407.9,463.73C361.15,383.68,315.82,306.06,269.38,226.52Z"/><path class="cls-1" d="M251,115.9c-30.49.11-53.71-23.53-53.59-54.54.12-30.5,22.95-53.77,52.85-53.86,30.29-.09,54,23.87,53.87,54.43C304,91.78,280.38,115.81,251,115.9Z"/><path class="cls-1" d="M351.76,207.21c-12.87,0-24.51.57-36-.31-4-.31-8.54-3.48-11.42-6.65-11.57-12.71-22.58-25.92-35.75-41.24v47.27H238.71V135.89c12.37,0,24.68-.55,36.88.35,3.49.26,7.12,4.31,9.92,7.35,11.56,12.59,22.83,25.47,36.52,40.84V136.57h29.73Z"/><path class="cls-1" d="M57.85,156.06c7.94,2.11,15.86,4.28,23.81,6.3,10,2.53,20.56,3.62,29.69,7.92,5.14,2.42,10.82,10,10.88,15.34s-5.46,13.49-10.49,15.6c-24.68,10.3-50.45,10.7-75.58,1.87C30.3,201,26.49,193,23.08,185.89c13-.22,24.45-6.15,36.1,5.39,7.27,7.21,20.63,4.69,31.17-4.49-4.31-1.87-8.45-4.4-12.94-5.49-12.08-2.94-24.38-5-36.46-7.93-9-2.19-17.68-7.63-15.54-17.45,1.42-6.52,8.57-14.42,14.91-16.7,21.1-7.57,43.21-7.44,64.57-.58,6.17,2,10.9,8.52,15.08,15-12,1.36-22.48,6.29-33.55-2.36C78.33,145,67.33,145.78,57.85,156.06Z"/><path class="cls-1" d="M486.18,207.21c-11.19,0-19.74.12-28.28-.08-2.45-.06-6.54-.41-7-1.73-6.42-16.68-20.56-10.76-32-11-11.62-.2-23.65-3.7-32.9,10.46-3.29,5-18.34,2.23-31.45,3.28,4.72-7.14,7.81-11.9,11-16.6,10.2-15,20.95-29.71,30.47-45.17,5.22-8.48,11.55-10.22,20.94-11.14,17.2-1.68,27.52,4.47,35.73,19.66C462,172.33,473.9,188.33,486.18,207.21ZM419.94,152,404.2,177.53h30.41C429.55,168.72,425.35,161.41,419.94,152Z"/><path class="cls-1" d="M137.45,206.52v-70h83.48v13.71c-14,0-28.06-.12-42.11.05-9.78.11-9.78.28-8.47,12.2h47.06c.3,5.08.54,9.19.87,14.9H169.63v14h53.31v15.15Z"/><path class="cls-2" d="M419.94,152c5.41,9.44,9.61,16.75,14.67,25.56H404.2Z"/></svg>