<?xml version="1.0" encoding="utf-8"?>
<!-- Generator: Adobe Illustrator 25.0.1, SVG Export Plug-In . SVG Version: 6.00 Build 0)  -->
<svg version="1.0" id="katman_1" xmlns="http://www.w3.org/2000/svg" xmlns:xlink="http://www.w3.org/1999/xlink" x="0px" y="0px"
	 viewBox="0 0 490 347" style="enable-background:new 0 0 490 347;" xml:space="preserve">
<style type="text/css">
	.st0{fill:#166DA5;}
	.st1{fill:#8FDB69;}
	.st2{opacity:0.95;fill:url(#SVGID_1_);enable-background:new    ;}
	.st3{opacity:0.95;fill:url(#SVGID_2_);enable-background:new    ;}
	.st4{opacity:0.95;fill:url(#SVGID_3_);enable-background:new    ;}
	.st5{fill:#010101;}
	.st6{opacity:0.95;fill:url(#SVGID_4_);enable-background:new    ;}
</style>
<g>
	<polygon class="st0" points="373,173 345.2,219.8 306.2,172.4 345.2,126.2 	"/>
	<polygon class="st1" points="342.2,227.8 299.8,177.2 274.4,219.7 313.9,277.4 	"/>
	<polygon class="st0" points="341.7,117.9 299.8,168.7 274.4,126.2 313.9,69.2 	"/>
	
		<linearGradient id="SVGID_1_" gradientUnits="userSpaceOnUse" x1="-151.8775" y1="469.4991" x2="-150.8775" y2="469.4991" gradientTransform="matrix(127.6787 0 0 -48.7384 19605.5176 22976.1758)">
		<stop  offset="0" style="stop-color:#2A3B8F"/>
		<stop  offset="1" style="stop-color:#29ABE2"/>
	</linearGradient>
	<polygon class="st2" points="214,117.9 341.7,117.9 313.6,69.2 242.1,69.2 	"/>
	
		<linearGradient id="SVGID_2_" gradientUnits="userSpaceOnUse" x1="-151.1829" y1="468.9467" x2="-150.1829" y2="468.9467" gradientTransform="matrix(96.1985 0 0 -42.8259 14817.8057 20230.5215)">
		<stop  offset="0" style="stop-color:#2A3B8F"/>
		<stop  offset="1" style="stop-color:#29ABE2"/>
	</linearGradient>
	<polyline class="st3" points="299.8,168.9 370.4,168.9 345,126 274.2,126 	"/>
	
		<linearGradient id="SVGID_3_" gradientUnits="userSpaceOnUse" x1="-150.8881" y1="469.4991" x2="-151.8881" y2="469.4991" gradientTransform="matrix(128.3179 0 0 -48.7384 19703.7949 23135.0176)">
		<stop  offset="0" style="stop-color:#B4D44E"/>
		<stop  offset="1" style="stop-color:#E7F716"/>
	</linearGradient>
	<polygon class="st4" points="342.2,228 213.8,228 242,276.7 313.9,276.7 	"/>
	<polygon class="st5" points="242,276.7 181.9,172.9 242.8,69 176.9,69 117,172.9 176.9,276.7 	"/>
	
		<linearGradient id="SVGID_4_" gradientUnits="userSpaceOnUse" x1="-150.1829" y1="468.9467" x2="-151.1829" y2="468.9467" gradientTransform="matrix(96.1985 0 0 -42.8259 14817.8057 20281.498)">
		<stop  offset="0" style="stop-color:#B4D44E"/>
		<stop  offset="1" style="stop-color:#E7F716"/>
	</linearGradient>
	<polyline class="st6" points="299.8,177 370.4,177 345,219.8 274.2,219.8 	"/>
</g>
</svg>
