<svg width="50" height="51" viewBox="0 0 50 51" fill="none" xmlns="http://www.w3.org/2000/svg">
<path d="M42.5112 8.10651C37.8348 3.41901 31.6071 0.840881 24.9888 0.840881C11.3281 0.840881 0.212054 11.957 0.212054 25.6177C0.212054 29.9815 1.35045 34.2449 3.51562 38.0061L0 50.8409L13.1362 47.3922C16.7522 49.3677 20.8259 50.4056 24.9777 50.4056H24.9888C38.6384 50.4056 50 39.2895 50 25.6288C50 19.0105 47.1875 12.794 42.5112 8.10651ZM24.9888 46.2315C21.2835 46.2315 17.6562 45.2382 14.4978 43.3632L13.75 42.9168L5.95982 44.9592L8.03571 37.3587L7.54464 36.5775C5.47991 33.2962 4.39732 29.5128 4.39732 25.6177C4.39732 14.2672 13.6384 5.02615 25 5.02615C30.5022 5.02615 35.6696 7.16901 39.5536 11.0641C43.4375 14.9592 45.8259 20.1266 45.8147 25.6288C45.8147 36.9904 36.3393 46.2315 24.9888 46.2315ZM36.2835 30.8074C35.6696 30.4949 32.6228 28.9994 32.0536 28.7985C31.4844 28.5864 31.0714 28.486 30.6585 29.111C30.2455 29.736 29.0625 31.1199 28.6942 31.544C28.3371 31.957 27.9688 32.0128 27.3549 31.7003C23.7165 29.8811 21.3281 28.4525 18.9286 24.3342C18.2924 23.2404 19.5647 23.3186 20.7478 20.9525C20.9487 20.5395 20.8482 20.1824 20.692 19.8699C20.5357 19.5574 19.2969 16.5105 18.7835 15.2717C18.2812 14.0663 17.7679 14.2337 17.3884 14.2114C17.0312 14.1891 16.6183 14.1891 16.2054 14.1891C15.7924 14.1891 15.1228 14.3453 14.5536 14.9592C13.9844 15.5842 12.3884 17.0797 12.3884 20.1266C12.3884 23.1735 14.6094 26.1199 14.9107 26.5328C15.2232 26.9458 19.2746 33.1958 25.4911 35.8855C29.4196 37.582 30.9598 37.727 32.9241 37.4369C34.1183 37.2583 36.5848 35.9413 37.0982 34.4904C37.6116 33.0395 37.6116 31.8007 37.4554 31.544C37.3103 31.265 36.8973 31.1087 36.2835 30.8074Z" fill="#08AC18"/>
</svg>
